{"glyphs":{":":{"x_min":0,"x_max":253,"ha":253,"o":"m 61 359 l 61 364 q 71 390 87 405 q 102 421 130 432 l 134 432 q 162 422 177 407 q 193 391 203 364 l 203 359 q 192 328 177 313 q 161 298 134 291 l 130 291 q 99 297 84 312 q 69 327 61 359 z m 61 68 l 61 73 q 71 99 87 115 q 102 130 130 141 l 134 141 q 162 131 177 116 q 193 100 203 73 l 203 68 q 192 37 177 22 q 161 7 134 0 l 130 0 q 99 6 84 21 q 69 36 61 68 z"},"$":{"x_min":0,"x_max":514,"ha":514,"o":"m 250 373 l 264 563 q 228 561 202 534 q 177 508 177 474 q 177 406 250 373 z m 281 252 l 265 39 q 303 42 326 68 q 349 94 349 138 q 349 219 281 252 z m 262 -9 l 255 -93 q 247 -98 215 -98 l 221 -9 q 176 -7 133 3 q 89 13 68 21 l 47 31 l 45 33 q 57 82 64 142 l 82 143 q 104 111 145 81 q 187 51 225 42 l 242 269 q 213 280 191 292 q 168 303 143 320 q 117 337 100 355 q 83 373 72 398 q 60 422 60 449 q 60 522 121 566 q 182 610 267 610 l 273 689 q 286 694 314 694 l 307 608 q 346 604 382 594 q 418 584 435 576 l 451 568 l 453 565 q 442 525 434 458 l 406 457 q 389 488 362 517 q 334 546 304 558 l 289 357 q 316 347 338 337 q 361 327 388 310 q 415 292 433 274 q 451 255 464 228 q 476 201 476 171 q 476 100 419 48 q 361 -4 262 -9 z"},"?":{"x_min":0,"x_max":464,"ha":464,"o":"m 215 610 q 146 610 92 516 l 59 517 l 43 593 l 46 597 q 69 617 123 638 q 176 659 224 659 q 311 659 354 635 q 388 616 405 582 q 423 548 423 508 q 423 486 415 466 q 407 445 398 431 q 388 417 370 399 q 351 382 341 374 q 331 366 311 352 q 305 348 303 346 q 288 335 281 328 q 273 322 263 308 q 252 293 248 274 q 243 254 243 228 l 243 189 q 243 184 230 179 q 217 174 210 174 q 203 174 190 179 q 177 184 177 189 l 177 230 q 177 320 254 391 q 272 408 282 430 q 292 451 293 466 q 295 480 295 504 q 295 523 285 547 q 275 571 256 591 q 237 610 215 610 z m 133 48 l 133 53 q 143 79 159 94 q 174 110 202 121 l 206 121 q 234 111 250 96 q 265 81 275 53 l 275 48 q 264 17 249 2 q 233 -13 206 -20 l 202 -20 q 171 -14 156 1 q 141 16 133 48 z"},"<":{"x_min":0,"x_max":512,"ha":512,"o":"m 153 240 l 471 134 l 471 52 l 42 208 l 42 272 l 471 428 l 471 346 z"},"'":{"x_min":0,"x_max":215,"ha":215,"o":"m 98 421 l 83 425 q 51 585 51 591 q 51 610 69 628 q 86 645 116 645 q 131 645 141 642 q 150 639 155 633 q 159 627 160 622 q 161 616 161 608 q 161 601 152 556 l 133 469 l 124 427 z"},"=":{"x_min":0,"x_max":551,"ha":551,"o":"m 493 193 l 493 123 l 59 123 l 59 193 z m 493 341 l 493 271 l 59 271 l 59 341 z"},"a":{"x_min":0,"x_max":516,"ha":516,"o":"m 311 222 l 231 201 q 213 196 200 186 q 187 176 180 162 q 174 149 171 135 q 168 122 168 107 q 168 86 183 68 q 199 50 220 50 q 260 50 294 84 q 299 89 304 104 q 309 119 309 129 z m 437 80 q 437 57 451 51 q 464 44 498 44 q 505 38 508 23 q 487 7 454 -1 q 421 -10 389 -10 q 357 -10 339 4 q 321 17 310 48 l 308 48 q 250 -10 171 -10 q 115 -10 75 20 q 34 49 34 98 q 34 149 75 186 q 115 223 188 240 l 305 271 q 311 273 311 283 q 311 339 294 362 q 277 385 242 385 q 208 385 177 364 q 145 344 119 306 l 86 307 l 66 382 l 69 386 q 89 404 145 421 q 201 439 251 439 q 292 439 335 429 q 379 418 401 399 q 441 363 441 277 q 441 273 439 185 q 437 97 437 80 z"},"L":{"x_min":0,"x_max":588,"ha":588,"o":"m 247 210 q 247 108 255 81 q 314 81 386 86 q 458 92 499 98 l 541 103 l 543 99 q 541 83 541 42 q 541 28 543 0 l 541 -3 q 517 0 481 0 l 177 0 l 94 -3 l 93 0 q 103 71 103 200 l 103 445 q 103 563 92 645 l 94 648 q 139 645 173 645 l 256 648 l 257 645 q 247 579 247 445 z"},"3":{"x_min":0,"x_max":514,"ha":514,"o":"m 213 31 q 225 31 237 35 q 250 39 264 49 q 278 59 289 75 q 300 91 308 117 q 315 144 315 177 q 315 294 202 294 q 165 294 153 292 l 153 332 q 311 343 311 466 q 311 505 285 536 q 259 568 229 568 q 216 568 205 566 q 194 563 186 561 q 178 559 170 552 l 157 542 q 152 538 145 527 q 138 516 135 511 l 124 491 l 113 470 l 69 471 l 48 550 l 51 554 q 73 574 125 592 q 178 610 238 610 q 334 610 386 580 q 438 550 438 482 q 438 422 403 383 q 367 344 309 329 l 309 326 q 338 323 365 314 q 392 304 416 287 q 439 270 453 242 q 467 215 467 180 q 467 121 433 77 q 398 33 341 11 q 283 -11 211 -11 q 104 -11 40 45 l 36 50 l 58 129 l 102 130 q 108 119 116 103 l 129 78 q 133 69 142 59 q 150 48 158 43 q 167 38 181 34 q 194 31 213 31 z"},";":{"x_min":0,"x_max":253,"ha":253,"o":"m 61 360 l 61 365 q 71 391 87 406 q 102 422 130 433 l 134 433 q 162 423 177 408 q 193 392 203 365 l 203 360 q 192 329 177 314 q 161 299 134 292 l 130 292 q 99 298 84 313 q 69 328 61 360 z m 60 58 l 60 64 q 68 89 84 105 q 100 121 128 132 l 134 132 q 171 118 193 88 q 214 57 214 0 q 214 -64 168 -112 q 123 -160 62 -171 q 57 -166 55 -152 q 54 -139 57 -129 q 102 -117 128 -87 q 154 -58 154 -34 q 154 -13 148 -6 q 142 0 128 0 q 95 6 81 17 q 67 28 60 58 z"},"J":{"x_min":0,"x_max":373,"ha":373,"o":"m 140 155 l 140 445 q 140 570 130 645 l 132 648 q 180 645 214 645 l 293 648 l 294 645 q 284 579 284 445 l 284 117 q 284 31 271 -13 q 258 -57 215 -110 q 178 -155 127 -178 q 76 -201 25 -201 q 8 -201 -18 -198 q -44 -195 -50 -192 l -51 -189 q -42 -175 -33 -132 q -24 -90 -24 -68 l 5 -62 q 15 -79 41 -99 q 67 -119 87 -119 q 116 -119 130 -90 q 144 -62 144 -24 q 144 15 142 76 q 140 138 140 155 z"},"V":{"x_min":0,"x_max":672,"ha":672,"o":"m 364 179 l 438 350 q 466 416 500 505 q 533 594 548 648 q 560 645 606 645 q 642 645 654 648 l 359 -10 l 290 -10 l 194 225 l 84 492 q 38 603 16 648 q 33 645 117 645 q 176 645 193 648 q 248 456 364 179 z"},"\"":{"x_min":0,"x_max":375,"ha":375,"o":"m 251 422 l 236 426 q 204 586 204 592 q 204 611 222 629 q 239 646 269 646 q 284 646 294 643 q 303 640 307 634 q 312 628 313 623 q 314 617 314 609 q 314 602 305 557 l 286 470 l 277 428 z m 108 421 l 93 425 q 61 585 61 591 q 61 610 79 628 q 96 645 126 645 q 141 645 151 642 q 160 639 164 633 q 168 627 170 622 q 171 616 171 608 q 171 601 162 556 l 143 469 l 134 427 z"},"7":{"x_min":0,"x_max":514,"ha":514,"o":"m 375 496 q 349 496 307 494 q 265 492 193 488 l 79 481 q 84 519 84 555 q 84 571 79 609 q 149 599 399 599 q 433 599 463 607 l 477 587 q 335 243 251 -9 l 133 -13 l 130 -6 q 155 51 244 221 q 333 392 375 496 z"},"S":{"x_min":0,"x_max":542,"ha":542,"o":"m 253 42 q 346 42 346 145 q 346 174 321 203 q 297 230 259 250 q 179 291 145 315 q 104 345 78 377 q 47 417 47 485 q 47 536 78 576 q 108 617 157 637 q 206 658 263 658 q 297 658 331 654 q 364 649 388 642 q 411 636 430 629 q 449 622 458 617 l 467 613 l 469 610 q 458 572 449 490 l 419 489 q 404 516 383 542 q 362 568 332 588 q 302 609 274 609 q 234 609 209 580 q 183 551 183 512 q 183 486 191 466 q 198 446 215 432 q 231 417 246 409 q 260 401 285 389 q 308 379 322 372 q 336 364 359 352 q 382 339 397 328 q 413 316 430 300 q 448 284 458 267 q 469 251 476 230 q 483 208 483 186 q 483 148 466 113 q 449 77 419 50 q 389 22 343 6 q 298 -10 244 -10 q 190 -10 136 1 q 83 13 56 24 l 29 35 l 27 38 q 39 83 47 160 l 73 161 q 102 118 156 80 q 209 42 253 42 z"},"}":{"x_min":0,"x_max":307,"ha":307,"o":"m 99 -58 l 91 108 q 88 170 114 200 q 140 229 196 245 l 196 249 q 141 272 114 306 q 88 340 91 399 l 99 548 q 102 608 78 645 q 54 682 19 682 q 15 687 15 694 q 15 702 19 706 q 60 706 91 698 q 123 691 149 673 q 176 656 189 623 q 203 590 201 543 l 195 373 q 193 325 217 297 q 240 270 293 263 q 299 257 299 248 q 299 238 293 231 q 241 226 218 196 q 195 166 195 124 l 201 -60 q 202 -93 192 -119 q 182 -146 165 -163 q 147 -180 123 -191 q 99 -203 73 -208 q 47 -213 19 -213 q 15 -208 15 -201 q 15 -193 19 -189 q 34 -185 43 -181 q 52 -177 65 -168 q 78 -158 84 -146 q 91 -133 96 -110 q 101 -88 99 -58 z"},"Z":{"x_min":0,"x_max":645,"ha":645,"o":"m 208 63 q 266 63 366 68 q 466 73 537 79 l 608 84 l 610 81 q 608 65 608 38 q 608 28 610 0 l 608 -3 q 584 0 537 0 l 154 0 l 5 -3 l 2 1 q 8 9 17 22 q 26 36 28 38 l 419 583 l 60 561 l 58 564 q 60 580 60 607 q 60 617 58 645 l 60 648 q 84 645 121 645 l 486 645 q 510 645 555 647 q 600 649 612 651 q 618 651 618 645 q 618 633 588 591 q 213 73 210 67 q 208 64 208 63 z"},"x":{"x_min":0,"x_max":534,"ha":534,"o":"m 190 207 l 186 213 l 20 432 q 36 429 117 429 q 173 429 190 432 q 227 372 283 294 q 346 376 385 432 q 396 429 451 429 q 485 429 496 432 l 332 242 l 346 223 q 410 132 514 -3 q 499 0 444 0 q 363 0 348 -3 q 313 52 242 152 q 156 32 133 -3 q 123 0 79 0 q 34 0 24 -3 l 188 203 z"},")":{"x_min":0,"x_max":338,"ha":338,"o":"m 294 252 q 294 131 226 5 q 159 -121 63 -203 l 31 -175 q 44 -159 57 -142 q 70 -125 91 -86 q 111 -47 126 -3 q 141 40 152 107 q 163 174 163 249 q 163 324 152 391 q 141 459 126 504 q 112 548 91 588 q 71 628 58 647 q 44 666 31 681 l 63 708 q 294 489 294 252 z"},"&":{"x_min":0,"x_max":729,"ha":729,"o":"m 270 523 q 270 506 281 477 q 292 447 311 420 l 344 446 q 354 456 369 471 q 384 486 391 499 q 397 513 397 527 q 397 568 382 590 q 366 613 337 613 q 310 613 290 590 q 270 567 270 523 z m 396 122 q 292 261 253 322 q 198 287 178 253 q 157 218 157 170 q 157 107 187 69 q 216 31 256 31 q 296 31 329 52 q 361 73 396 122 z m 451 209 q 524 322 537 432 q 547 429 591 429 q 638 429 648 432 q 633 407 568 291 q 504 175 491 156 l 503 136 l 516 115 l 528 96 q 536 84 542 78 q 547 71 554 64 q 562 57 568 54 q 575 51 581 51 q 604 51 619 62 q 634 74 652 109 l 684 86 q 667 55 651 35 q 635 16 618 6 q 602 -3 588 -7 q 574 -10 555 -10 q 519 -10 493 8 q 467 26 431 78 q 406 50 383 32 q 360 15 325 2 q 290 -10 247 -10 q 201 -10 164 -1 q 127 8 99 27 q 70 46 55 77 q 39 108 39 150 q 39 207 80 254 q 121 300 232 364 q 200 413 185 450 q 170 487 170 521 q 170 544 182 567 q 194 590 216 610 q 237 629 272 642 q 306 654 347 654 q 417 654 453 624 q 490 594 490 537 q 490 500 449 455 q 408 410 342 372 q 374 316 451 209 z"},"_":{"x_min":0,"x_max":486,"ha":486,"o":"m 482 -103 l 482 -164 l 5 -164 l 5 -103 z"},"v":{"x_min":0,"x_max":540,"ha":540,"o":"m 199 -3 q 97 264 20 432 q 36 429 107 429 q 168 429 181 432 q 246 227 295 110 l 298 110 l 322 167 q 334 196 350 237 l 372 297 l 398 370 q 417 425 420 432 q 429 429 463 429 q 511 429 520 432 q 393 160 326 -3 q 317 0 274 0 q 209 0 199 -3 z"},"O":{"x_min":0,"x_max":799,"ha":799,"o":"m 384 605 q 213 605 213 327 q 213 188 269 115 q 324 43 418 43 q 503 43 544 109 q 586 175 586 310 q 586 466 538 535 q 490 605 384 605 z m 747 329 q 747 254 722 192 q 698 129 653 84 q 608 40 542 15 q 477 -10 398 -10 q 300 -10 221 31 q 142 71 97 145 q 52 218 52 310 q 52 407 95 487 q 139 566 218 612 q 297 658 397 658 q 556 658 652 568 q 747 478 747 329 z"},"(":{"x_min":0,"x_max":338,"ha":338,"o":"m 44 252 q 44 373 112 499 q 179 625 275 707 l 307 679 q 293 664 281 646 q 268 629 247 590 q 227 551 212 508 q 197 464 186 397 q 175 330 175 255 q 175 180 186 113 q 197 45 211 0 q 226 -44 247 -84 q 267 -124 280 -143 q 293 -161 307 -177 l 275 -204 q 44 15 44 252 z"},"C":{"x_min":0,"x_max":691,"ha":691,"o":"m 406 658 q 440 658 475 654 q 510 649 536 642 q 562 636 582 629 q 603 622 613 617 l 624 613 l 626 610 q 610 543 606 480 l 576 479 q 544 542 501 572 q 458 602 392 602 q 366 602 341 594 q 315 586 289 566 q 264 546 244 516 q 225 487 212 440 q 200 393 200 334 q 200 264 227 198 q 254 133 301 91 q 348 50 401 50 q 471 50 514 68 q 558 86 614 139 l 638 105 q 578 43 516 17 q 453 -10 382 -10 q 254 -10 164 56 q 102 102 69 170 q 37 239 37 315 q 37 397 69 468 q 102 538 161 584 q 208 620 271 639 q 336 658 406 658 z"},"W":{"x_min":0,"x_max":1043,"ha":1043,"o":"m 735 179 q 887 525 919 648 q 931 645 970 645 q 1013 645 1025 648 l 730 -10 l 661 -10 q 616 99 534 311 l 390 -10 l 300 -10 q 71 536 16 648 q 33 645 117 645 q 171 645 188 648 q 194 625 214 571 q 234 516 280 398 l 386 145 l 497 406 q 421 599 397 648 q 414 645 478 645 q 557 645 574 648 q 574 647 581 621 l 595 572 q 601 550 615 505 q 629 459 645 415 l 684 308 q 708 244 735 179 z"},"A":{"x_min":0,"x_max":701,"ha":701,"o":"m 412 275 q 358 413 323 494 l 317 494 l 224 276 q 265 274 328 274 q 355 274 412 275 z m 200 219 q 142 77 121 -3 q 109 0 76 0 q 32 0 20 -3 l 315 658 l 405 658 l 562 270 q 645 67 679 -3 q 662 0 588 0 q 524 0 507 -3 q 483 84 433 220 q 334 221 333 221 q 276 221 200 219 z"},"f":{"x_min":0,"x_max":376,"ha":376,"o":"m 167 629 q 198 662 249 680 q 300 698 360 698 q 375 698 392 695 q 409 692 415 689 l 416 686 q 411 678 407 659 q 403 640 399 617 q 396 594 393 585 l 363 584 q 357 595 353 600 q 350 605 343 614 q 336 622 328 625 q 319 629 309 629 q 269 629 244 603 q 220 577 220 535 q 220 524 223 488 q 225 452 225 439 l 225 429 l 333 429 q 341 429 341 423 l 341 392 q 341 386 333 383 q 326 379 318 379 l 225 379 l 225 200 q 225 66 233 0 l 231 -3 q 196 0 162 0 l 87 -3 l 86 0 q 93 51 93 200 l 93 379 l 27 379 q 22 379 22 385 l 22 409 q 22 417 27 423 q 33 429 45 429 l 93 429 l 93 459 q 93 503 113 548 q 133 593 167 629 z"},"Q":{"x_min":0,"x_max":799,"ha":799,"o":"m 384 605 q 213 605 213 327 q 213 188 269 115 q 324 43 418 43 q 503 43 544 109 q 586 175 586 310 q 586 466 538 535 q 490 605 384 605 z m 590 37 l 607 27 l 626 16 l 645 5 l 665 -7 l 686 -18 q 700 -25 709 -29 l 732 -40 q 746 -47 758 -52 l 783 -62 q 796 -67 810 -72 l 810 -78 q 717 -127 696 -144 q 646 -116 592 -76 q 539 -36 479 -3 q 439 -10 398 -10 q 300 -10 221 31 q 142 71 97 145 q 52 218 52 310 q 52 407 95 487 q 139 566 218 612 q 297 658 397 658 q 556 658 652 568 q 747 478 747 329 q 747 232 706 156 q 665 80 590 37 z"},"w":{"x_min":0,"x_max":791,"ha":791,"o":"m 191 -4 q 173 47 150 107 l 109 211 l 62 324 l 18 431 q 32 428 106 428 q 158 428 170 431 q 177 408 193 348 q 210 288 219 257 q 229 226 244 178 q 260 129 276 89 l 286 89 q 321 172 368 311 l 318 432 q 332 429 401 429 q 458 429 470 432 l 498 332 q 517 261 532 209 q 548 158 566 110 l 573 110 q 591 152 608 205 l 648 330 l 680 432 q 688 429 721 429 q 765 429 773 432 q 649 138 598 -3 q 590 0 551 0 q 498 0 489 -3 q 452 104 401 229 q 347 102 313 -4 q 305 -1 251 -1 q 200 -1 191 -4 z"},"-":{"x_min":0,"x_max":344,"ha":344,"o":"m 279 221 l 53 221 q 47 221 42 229 q 38 236 38 243 q 38 257 46 275 q 55 294 63 294 l 292 294 q 299 294 302 286 q 306 279 306 271 q 306 260 297 241 q 288 221 279 221 z"},"E":{"x_min":0,"x_max":584,"ha":584,"o":"m 240 200 q 240 101 248 73 q 308 73 379 79 q 451 84 492 90 l 534 95 l 536 91 q 534 75 534 36 q 534 28 536 0 l 534 -3 q 510 0 474 0 l 170 0 l 85 -3 l 84 0 q 96 84 96 200 l 96 445 q 96 556 84 645 l 86 648 q 136 645 170 645 l 464 645 q 500 645 524 648 l 526 645 q 524 617 524 610 q 524 584 526 569 l 524 565 q 381 577 248 577 q 240 550 240 445 l 240 372 q 349 372 467 382 l 470 379 q 467 363 467 342 q 467 319 470 304 l 467 301 q 363 311 240 311 z"},"s":{"x_min":0,"x_max":419,"ha":419,"o":"m 54 113 l 84 114 q 105 73 134 53 q 162 34 191 34 q 205 34 213 35 q 221 35 231 38 q 241 41 247 46 q 252 51 256 60 q 260 69 260 83 q 260 112 241 131 q 222 150 165 181 q 139 196 124 206 q 107 218 91 235 q 75 251 67 272 q 59 292 59 318 q 59 374 108 406 q 157 439 228 439 q 265 439 303 432 q 341 424 361 413 l 363 410 l 344 320 l 317 319 q 281 394 226 394 q 199 394 188 381 q 177 368 177 345 q 177 323 192 309 q 207 294 237 278 l 260 266 l 284 253 q 291 249 305 241 q 319 232 325 227 l 343 212 q 353 203 358 194 q 363 185 369 174 q 375 163 377 150 q 379 137 379 122 q 379 66 332 28 q 286 -10 194 -10 q 111 -10 38 17 z"},">":{"x_min":0,"x_max":512,"ha":512,"o":"m 360 240 l 42 346 l 42 428 l 471 272 l 471 208 l 42 52 l 42 134 z"},"l":{"x_min":0,"x_max":304,"ha":304,"o":"m 86 200 l 86 474 q 86 599 74 662 l 76 665 q 104 667 151 678 q 198 690 219 698 q 230 698 230 688 q 218 592 218 500 l 218 200 q 218 84 230 0 l 228 -3 q 186 0 152 0 l 75 -3 l 74 0 q 86 76 86 200 z"},"8":{"x_min":0,"x_max":514,"ha":514,"o":"m 261 570 q 224 570 205 547 q 185 523 185 487 q 185 462 202 436 q 219 409 249 391 l 278 374 q 291 385 298 392 q 306 398 317 412 q 328 425 333 441 q 338 457 338 476 q 338 515 319 542 q 300 570 261 570 z m 449 484 q 449 438 420 406 q 392 375 331 350 l 390 315 q 428 289 453 246 q 478 204 478 161 q 478 72 403 22 q 379 7 336 -1 q 292 -10 252 -10 q 199 -10 152 7 q 104 24 73 61 q 41 97 41 146 q 41 200 76 240 q 110 280 179 316 l 161 326 q 72 377 72 463 q 72 527 125 568 q 179 610 267 610 q 348 610 398 575 q 449 541 449 484 z m 254 30 q 271 30 284 32 q 297 35 310 42 q 323 49 332 61 q 340 73 346 93 q 351 113 351 141 q 351 185 334 213 q 318 241 275 269 l 232 292 q 191 262 179 226 q 166 191 166 146 q 166 94 193 62 q 220 30 254 30 z"},"\\":{"x_min":0,"x_max":313,"ha":313,"o":"m 81 698 l 311 -48 l 241 -48 l 11 698 z"},"e":{"x_min":0,"x_max":500,"ha":500,"o":"m 172 275 l 324 275 q 326 277 326 296 q 326 324 319 345 q 312 365 301 375 q 290 385 279 390 q 268 394 257 394 q 245 394 229 387 q 214 381 203 365 q 173 320 172 275 z m 442 129 q 449 129 453 119 q 457 109 457 98 q 420 44 372 17 q 323 -10 270 -10 q 162 -10 107 40 q 76 68 58 112 q 40 157 40 202 q 40 258 59 304 q 78 351 109 381 q 140 411 180 427 q 220 444 263 444 q 306 444 339 433 q 373 423 394 406 q 415 389 428 365 q 442 342 448 317 q 453 293 453 266 q 453 252 447 241 q 440 230 424 230 l 168 230 l 168 214 q 168 169 179 139 q 189 109 210 94 q 230 78 254 72 q 277 66 309 66 q 339 66 376 82 q 413 99 442 129 z"},"b":{"x_min":0,"x_max":585,"ha":585,"o":"m 234 54 q 257 40 310 40 q 360 40 383 87 q 405 132 405 222 q 405 295 381 333 q 357 371 311 371 q 292 371 272 362 q 252 354 217 328 l 217 108 q 217 85 220 73 q 224 60 234 54 z m 217 500 l 217 384 q 260 416 290 427 q 321 439 355 439 q 438 439 492 389 q 547 339 547 242 q 547 178 524 127 q 501 76 463 43 q 401 -10 314 -10 q 248 -10 217 -2 q 167 11 160 11 q 152 11 122 0 q 92 -11 88 -11 q 83 -10 77 -6 q 80 10 83 56 q 85 102 85 134 l 85 474 q 85 599 73 662 l 75 665 q 104 667 151 678 q 199 690 220 698 q 229 698 229 688 q 217 592 217 500 z"},"%":{"x_min":0,"x_max":637,"ha":637,"o":"m 463 53 q 463 20 483 20 q 514 20 537 60 q 562 103 562 157 q 562 214 523 214 q 508 214 495 199 q 482 185 475 162 q 463 125 463 53 z m 370 91 q 370 132 387 168 q 403 204 437 227 q 470 250 512 250 q 604 250 604 159 q 604 83 567 32 q 530 -19 471 -19 q 417 -19 393 11 q 370 41 370 91 z m 144 369 q 144 336 164 336 q 194 336 218 376 q 243 419 243 473 q 243 530 204 530 q 189 530 176 516 q 163 501 156 478 q 144 442 144 369 z m 51 407 q 51 448 67 484 q 84 520 117 543 q 150 566 193 566 q 239 566 261 544 q 285 543 321 531 q 357 519 364 519 q 468 519 514 569 l 561 548 l 150 -16 l 96 -4 l 462 497 q 406 474 354 474 q 319 474 284 493 q 285 482 285 475 q 285 399 248 348 q 210 297 152 297 q 98 297 74 327 q 51 357 51 407 z"},"m":{"x_min":0,"x_max":892,"ha":892,"o":"m 216 349 q 245 387 287 413 q 330 439 365 439 q 409 439 436 429 q 464 418 477 402 q 491 386 502 359 q 578 439 661 439 q 739 439 771 399 q 804 359 804 280 l 804 180 q 804 85 816 0 l 814 -3 q 775 0 741 0 l 661 -3 l 660 0 q 672 81 672 180 l 672 273 q 672 362 617 362 q 587 362 565 349 q 543 337 508 298 q 509 286 509 268 l 509 180 q 509 89 521 0 l 519 -3 q 480 0 446 0 l 366 -3 l 365 0 q 377 81 377 180 l 377 281 q 377 328 363 345 q 349 362 318 362 q 279 362 212 281 l 212 180 q 212 75 222 0 l 220 -3 q 180 0 146 0 l 69 -3 l 68 0 q 80 84 80 180 l 80 235 q 80 368 69 429 l 71 432 q 162 428 201 435 q 208 435 210 425 q 212 414 212 352 z"},"#":{"x_min":0,"x_max":514,"ha":514,"o":"m 289 253 l 306 360 l 211 360 q 208 341 202 306 q 195 271 192 253 z m 358 360 l 341 253 l 459 253 l 452 187 l 333 187 l 305 14 l 251 14 l 280 187 l 185 187 q 179 159 170 102 q 160 45 154 14 l 100 14 l 127 187 l 28 187 l 38 253 l 138 253 q 153 349 154 360 l 55 360 l 63 426 l 164 426 l 192 599 l 249 599 l 218 426 l 315 426 l 343 599 l 396 599 l 369 426 l 485 426 l 477 360 z"},",":{"x_min":0,"x_max":246,"ha":246,"o":"m 47 58 l 47 64 q 55 89 71 105 q 87 121 115 132 l 121 132 q 159 118 180 88 q 201 57 201 0 q 201 -63 155 -112 q 109 -160 49 -171 q 43 -166 42 -152 q 41 -139 44 -129 q 89 -117 115 -87 q 141 -58 141 -34 q 141 -13 135 -6 q 129 0 115 0 q 83 6 68 17 q 54 28 47 58 z"},"n":{"x_min":0,"x_max":600,"ha":600,"o":"m 512 180 q 512 70 523 0 l 521 -3 q 477 0 443 0 l 376 -3 l 374 0 q 380 53 380 180 l 380 269 q 380 362 328 362 q 273 362 212 282 l 212 180 q 212 68 218 0 l 215 -3 q 187 0 153 0 l 71 -3 l 69 0 q 80 73 80 180 l 80 235 q 80 368 69 429 l 71 432 q 162 428 201 435 q 208 435 210 425 q 212 414 212 352 l 216 349 q 250 392 292 416 q 333 439 373 439 q 442 439 477 404 q 512 368 512 291 z"},"h":{"x_min":0,"x_max":606,"ha":606,"o":"m 86 474 q 86 599 74 662 l 76 665 q 104 667 151 678 q 198 690 219 698 q 228 698 228 688 q 218 607 218 500 l 218 438 l 214 351 l 218 349 q 250 391 299 415 q 348 439 389 439 q 455 439 486 400 q 518 361 518 291 l 518 180 q 518 63 528 0 l 526 -3 q 499 0 465 0 l 381 -3 l 380 0 q 386 58 386 180 l 386 269 q 386 362 334 362 q 279 362 218 282 l 218 180 q 218 74 224 0 l 222 -3 q 189 0 155 0 l 75 -3 l 74 0 q 86 76 86 180 z"},"z":{"x_min":0,"x_max":484,"ha":484,"o":"m 271 370 q 221 369 168 366 q 115 364 87 361 l 59 359 l 57 362 q 59 377 59 397 q 59 403 57 429 l 59 432 q 82 429 115 429 l 367 429 q 380 429 399 431 q 418 432 432 434 q 447 435 448 435 q 453 435 453 429 q 446 421 423 387 l 200 59 q 253 60 314 62 q 375 65 410 67 l 444 70 l 446 67 q 444 51 444 32 q 444 26 446 0 l 444 -3 q 421 0 388 0 l 162 0 l 23 -3 l 21 7 q 31 17 42 32 z"},"B":{"x_min":0,"x_max":675,"ha":675,"o":"m 245 550 l 245 375 l 323 375 q 383 375 405 399 q 426 423 426 481 q 426 543 403 569 q 380 595 336 595 q 296 595 276 590 q 256 585 251 577 q 245 568 245 550 z m 245 322 l 245 97 q 245 71 263 61 q 281 50 332 50 q 360 50 382 53 q 404 56 419 60 q 434 65 444 74 q 454 83 460 91 q 465 99 469 112 q 472 125 472 137 q 473 148 473 165 q 473 189 470 209 q 468 229 459 251 q 451 272 436 287 q 422 302 397 312 q 372 322 338 322 z m 177 645 q 212 645 268 646 q 325 648 339 648 q 393 648 435 638 q 477 628 503 613 q 528 597 545 576 q 562 556 569 535 q 575 515 575 493 q 575 454 544 417 q 514 380 472 360 q 544 339 589 295 q 634 251 634 184 q 634 150 619 118 q 604 86 573 59 q 542 31 487 14 q 432 -3 361 -3 q 314 -3 262 -1 q 210 0 177 0 l 92 -3 l 91 0 q 103 84 103 200 l 103 445 q 103 556 91 645 l 93 648 q 143 645 177 645 z"},"K":{"x_min":0,"x_max":759,"ha":759,"o":"m 106 445 q 106 560 94 645 l 96 648 q 144 645 178 645 l 261 648 l 262 645 q 250 562 250 445 l 250 354 q 263 355 272 363 q 293 381 317 405 l 359 447 l 405 497 l 447 544 l 494 598 l 537 648 q 550 645 616 645 q 691 645 707 648 l 595 550 l 492 454 q 424 390 393 354 l 393 352 l 717 -3 q 698 0 615 0 q 540 0 523 -3 l 431 113 l 329 242 q 287 294 269 312 q 262 318 250 319 l 250 200 q 250 89 262 0 l 260 -3 q 212 0 178 0 l 95 -3 l 94 0 q 106 81 106 200 z"},"R":{"x_min":0,"x_max":687,"ha":687,"o":"m 334 602 q 284 602 265 590 q 245 577 245 553 l 245 352 l 299 352 q 323 352 338 353 q 352 354 369 356 q 387 358 396 364 q 406 369 416 378 q 426 388 431 402 q 436 416 439 435 q 442 455 442 482 q 442 504 440 521 q 438 538 433 551 q 429 563 424 572 q 419 581 411 586 q 402 592 395 595 q 388 599 376 600 q 364 602 356 602 q 348 602 334 602 z m 245 296 l 245 200 q 245 71 255 0 l 253 -3 q 207 0 173 0 l 92 -3 l 91 0 q 103 84 103 200 l 103 445 q 103 556 91 645 l 93 648 q 143 645 177 645 q 192 645 267 648 q 341 652 353 652 q 413 652 457 645 q 500 639 532 618 q 597 576 597 483 q 597 354 444 314 q 471 279 553 156 q 634 32 662 0 l 660 -3 q 640 0 567 0 q 508 0 489 -3 q 472 48 384 176 q 379 182 349 229 q 318 276 302 297 q 263 296 245 296 z"},"T":{"x_min":0,"x_max":602,"ha":602,"o":"m 229 436 q 229 540 221 567 q 162 567 111 561 q 60 556 38 550 l 17 545 l 15 549 q 17 560 17 592 q 17 624 15 645 l 17 648 q 41 645 77 645 l 525 645 q 561 645 585 648 l 587 645 q 585 624 585 592 q 585 560 587 549 l 585 545 q 577 547 562 551 q 546 555 493 561 q 440 567 381 567 q 373 540 373 436 l 373 200 q 373 71 383 0 l 381 -3 q 335 0 301 0 l 220 -3 l 219 0 q 229 68 229 200 z"},"P":{"x_min":0,"x_max":598,"ha":598,"o":"m 235 560 l 235 335 q 254 325 314 325 q 364 325 393 360 q 422 395 422 468 q 422 502 416 528 q 411 553 402 567 q 393 582 378 590 q 363 599 349 601 q 334 604 315 604 q 280 604 262 599 q 245 593 240 585 q 235 576 235 560 z m 93 445 q 93 560 81 645 l 83 648 q 131 645 165 645 q 181 645 255 648 q 329 652 342 652 q 455 652 503 618 q 541 592 557 556 q 573 519 573 486 q 573 459 565 431 q 557 403 538 375 q 519 346 491 324 q 464 302 421 288 q 377 274 325 274 q 268 274 235 284 l 235 200 q 235 89 247 0 l 245 -3 q 199 0 165 0 l 82 -3 l 81 0 q 93 81 93 200 z"},"|":{"x_min":0,"x_max":240,"ha":240,"o":"m 160 -232 l 80 -232 l 80 698 l 160 698 z"},"t":{"x_min":0,"x_max":354,"ha":354,"o":"m 24 379 q 19 379 15 384 q 11 389 11 395 q 11 406 18 417 q 25 429 32 429 l 90 429 q 90 473 89 486 q 88 499 83 530 l 85 533 q 120 541 215 578 q 224 578 224 568 q 219 495 219 429 l 326 429 q 334 429 334 423 l 334 392 q 334 386 326 383 q 318 379 310 379 l 219 379 l 217 272 q 216 212 216 131 q 216 97 225 76 q 234 54 253 54 q 274 54 285 56 q 295 58 311 66 q 319 61 323 49 q 328 38 328 25 q 271 -10 181 -10 q 136 -10 110 20 q 84 49 84 88 q 84 141 87 261 l 90 379 z"},"M":{"x_min":0,"x_max":931,"ha":931,"o":"m 153 662 l 234 662 q 397 322 474 181 l 733 662 l 812 662 l 836 445 q 852 297 864 196 q 876 95 890 -3 q 875 0 809 0 q 765 0 750 -3 q 724 310 705 473 l 669 408 l 632 338 l 598 276 q 574 230 562 205 l 529 142 l 494 68 l 463 0 l 408 0 l 354 110 l 303 214 l 243 330 l 188 438 l 168 290 q 153 176 146 108 q 139 41 138 -3 q 127 0 90 0 q 52 0 41 -3 q 95 291 153 662 z"},"g":{"x_min":0,"x_max":561,"ha":561,"o":"m 459 289 q 459 221 403 181 q 347 141 258 141 q 208 141 183 152 q 171 134 171 107 q 171 78 187 69 q 203 59 229 59 q 231 59 236 60 q 240 61 248 61 q 286 66 311 66 q 342 66 369 63 q 397 60 427 51 q 458 42 480 28 q 501 14 516 -10 q 530 -35 530 -68 q 530 -107 501 -143 q 472 -178 426 -201 q 351 -238 225 -238 q 189 -238 157 -232 q 125 -226 95 -214 q 66 -201 49 -178 q 32 -155 32 -124 q 32 -74 54 -46 q 65 -39 96 -25 q 127 -11 138 -4 q 59 8 59 74 q 59 98 85 123 q 112 148 146 160 l 148 165 q 123 173 108 183 q 54 221 54 285 q 54 355 111 397 q 167 439 251 439 q 293 439 323 430 q 351 432 416 434 q 482 437 509 439 l 512 436 q 509 421 509 407 q 509 396 512 380 l 509 377 q 497 378 461 382 q 425 385 408 386 q 431 370 445 343 q 459 315 459 289 z m 326 288 q 326 349 312 374 q 298 399 255 399 q 218 399 202 371 q 187 343 187 290 q 187 230 201 206 q 214 181 258 181 q 293 181 310 208 q 326 234 326 288 z m 183 -16 q 151 -49 151 -104 q 151 -128 162 -146 q 173 -165 189 -174 q 206 -184 222 -188 q 239 -193 253 -193 q 318 -193 359 -165 q 400 -136 400 -91 q 400 -71 392 -57 q 384 -42 373 -35 q 362 -27 344 -23 q 325 -19 311 -18 q 296 -17 276 -17 q 271 -17 247 -18 q 223 -18 206 -18 q 196 -18 183 -16 z"},"j":{"x_min":0,"x_max":350,"ha":350,"o":"m 118 607 q 118 637 140 658 q 162 678 193 678 q 225 678 246 657 q 268 637 268 607 q 268 577 246 557 q 225 536 193 536 q 161 536 140 557 q 118 577 118 607 z m 127 235 q 128 370 117 428 l 120 432 q 125 432 151 431 q 176 429 191 429 q 212 429 260 434 q 269 434 269 424 q 260 315 260 246 l 258 29 q 257 -90 209 -158 q 186 -192 138 -212 q 90 -232 44 -232 q 28 -232 -1 -229 q -29 -227 -34 -224 l -35 -221 q -30 -201 -30 -108 l -3 -101 q 5 -117 24 -130 q 42 -144 61 -144 q 76 -144 88 -134 q 100 -124 106 -106 q 113 -88 117 -65 q 122 -42 123 -16 q 125 10 125 37 q 126 64 126 90 l 126 116 z"},"i":{"x_min":0,"x_max":310,"ha":310,"o":"m 81 607 q 81 637 103 658 q 125 678 156 678 q 188 678 209 657 q 231 637 231 607 q 231 577 209 557 q 188 536 156 536 q 124 536 103 557 q 81 577 81 607 z m 90 235 q 90 375 80 428 l 83 432 q 88 432 114 431 q 139 429 154 429 q 176 429 223 434 q 232 434 232 424 q 222 302 222 246 l 222 180 q 222 71 232 0 l 230 -3 q 186 0 156 0 q 127 0 82 -3 l 80 0 q 90 68 90 180 z"},"y":{"x_min":0,"x_max":555,"ha":555,"o":"m 28 432 q 42 429 116 429 q 166 429 179 432 q 220 309 297 125 l 306 124 q 365 255 421 432 q 431 429 484 429 q 517 429 527 432 q 472 321 362 82 q 251 -157 227 -237 q 211 -232 178 -232 q 130 -232 114 -237 q 130 -210 145 -180 q 161 -149 169 -129 l 193 -72 l 216 -19 l 213 -12 q 187 58 124 208 z"},"@":{"x_min":0,"x_max":1068,"ha":1068,"o":"m 646 320 q 646 345 631 361 q 617 377 597 377 q 551 377 518 344 q 484 312 469 264 q 454 217 454 164 q 454 123 466 100 q 478 77 510 77 q 522 77 536 83 q 549 90 564 103 q 579 115 593 139 q 607 162 617 193 q 646 291 646 320 z m 700 75 q 700 66 704 63 q 708 61 718 61 q 729 61 747 69 q 765 77 786 94 q 806 112 824 136 q 842 160 854 196 q 865 232 865 273 q 865 336 843 390 q 821 443 786 478 q 751 513 708 538 q 664 562 623 573 q 581 584 544 584 q 497 584 449 569 q 402 555 358 525 q 314 495 281 454 q 247 412 226 354 q 206 295 206 228 q 206 182 219 135 q 232 87 261 41 q 290 -5 330 -41 q 371 -77 431 -99 q 491 -121 561 -121 q 625 -121 696 -101 q 768 -82 811 -46 q 819 -48 825 -60 q 830 -72 832 -85 q 782 -124 706 -147 q 631 -170 542 -170 q 454 -170 372 -141 q 290 -111 228 -60 q 166 -9 129 64 q 92 138 92 221 q 92 298 129 372 q 166 447 227 504 q 289 561 375 596 q 461 631 553 631 q 637 631 714 604 q 791 576 847 530 q 903 484 937 420 q 970 356 970 287 q 970 236 946 186 q 922 137 885 100 q 847 64 797 42 q 748 19 698 19 q 651 19 631 37 q 610 56 610 76 q 583 51 542 41 q 502 30 474 30 q 441 30 415 39 q 390 49 375 63 q 361 77 352 95 q 343 114 340 129 q 337 144 337 158 q 337 210 359 259 q 382 308 417 341 q 453 375 497 395 q 541 415 584 415 q 621 415 658 404 q 695 393 708 377 l 745 410 l 772 399 l 713 141 q 700 85 700 75 z"},".":{"x_min":0,"x_max":246,"ha":246,"o":"m 54 48 l 54 53 q 64 79 80 94 q 95 110 123 121 l 127 121 q 155 111 170 96 q 186 81 196 53 l 196 48 q 185 17 170 2 q 154 -13 127 -20 l 123 -20 q 92 -14 77 1 q 62 16 54 48 z"},"p":{"x_min":0,"x_max":585,"ha":585,"o":"m 212 282 l 212 76 q 255 40 301 40 q 344 40 372 84 q 401 127 401 198 q 401 374 319 374 q 292 374 260 347 q 228 321 212 282 z m 216 358 q 275 439 356 439 q 422 439 467 403 q 543 341 543 235 q 543 130 479 60 q 414 -10 319 -10 q 256 -10 212 18 l 212 -32 q 212 -161 222 -232 l 220 -235 q 179 -232 145 -232 l 71 -235 l 70 -232 q 80 -166 80 -32 l 80 235 q 80 368 69 429 l 71 432 q 162 428 201 435 q 208 435 210 425 q 212 414 212 361 z"},"X":{"x_min":0,"x_max":643,"ha":643,"o":"m 606 -3 q 588 0 527 0 q 446 0 428 -3 q 357 134 298 233 q 225 119 158 -3 q 147 0 106 0 q 54 0 43 -3 l 254 308 l 38 648 q 55 645 135 645 q 195 645 213 648 q 246 581 338 429 q 389 502 414 543 q 440 584 474 648 q 485 645 537 645 q 578 645 589 648 l 382 359 z"},"*":{"x_min":0,"x_max":433,"ha":433,"o":"m 197 566 q 193 566 184 568 q 174 570 170 571 q 166 571 156 571 q 133 567 115 567 q 97 566 86 576 q 75 586 75 608 q 75 621 83 630 q 91 640 108 640 q 123 640 136 632 q 150 623 168 609 q 186 595 203 588 q 201 609 187 638 q 173 667 173 679 q 173 694 185 706 q 197 718 211 718 q 226 718 239 709 q 251 700 251 683 q 251 669 239 636 q 227 603 226 588 q 241 594 254 604 q 268 614 275 622 q 283 630 293 636 q 304 642 315 642 q 335 642 344 630 q 354 619 354 608 q 354 587 334 577 q 315 568 285 568 q 249 568 231 565 q 243 552 267 540 q 290 527 303 515 q 316 502 316 480 q 316 467 306 459 q 296 451 284 451 q 262 451 251 467 q 239 482 230 510 q 221 539 213 552 q 207 541 202 524 q 197 508 194 497 q 191 485 186 474 q 181 463 170 457 q 160 451 143 451 q 130 451 122 459 q 114 467 114 479 q 114 494 119 505 q 125 516 134 522 q 143 529 153 534 q 163 540 176 548 q 188 556 197 566 z"},"Y":{"x_min":0,"x_max":653,"ha":653,"o":"m 406 304 q 407 74 414 -3 q 398 0 331 0 q 265 0 249 -3 q 256 62 256 275 q 230 318 144 452 l 16 648 q 33 645 114 645 q 175 645 192 648 l 232 572 l 271 505 l 315 430 l 357 357 q 457 515 521 648 q 533 645 579 645 q 613 645 626 648 l 553 537 l 488 438 l 445 370 q 421 332 406 304 z"},"c":{"x_min":0,"x_max":469,"ha":469,"o":"m 294 389 q 267 389 244 376 q 220 364 206 341 q 181 302 181 228 q 181 142 211 94 q 225 73 250 56 q 276 40 298 40 q 331 40 363 52 q 396 64 415 88 l 431 83 q 431 62 436 44 q 402 15 365 3 q 327 -10 271 -10 q 215 -10 169 7 q 124 24 96 54 q 42 113 42 202 q 42 278 75 333 q 108 387 163 413 q 217 439 285 439 q 321 439 366 429 q 410 418 434 406 l 436 403 l 412 306 l 384 305 q 351 389 294 389 z"},"!":{"x_min":0,"x_max":270,"ha":270,"o":"m 132 658 q 158 658 181 639 q 204 619 204 585 q 204 548 191 486 q 179 423 175 392 q 169 345 165 302 q 162 260 160 237 q 159 214 158 210 q 158 202 149 196 q 141 190 132 190 q 123 190 115 194 q 108 199 107 203 q 106 207 104 241 q 101 275 97 316 q 94 357 90 392 q 86 424 74 485 q 63 545 63 585 q 63 621 86 640 q 108 658 132 658 z m 62 48 l 62 53 q 72 79 88 94 q 103 110 131 121 l 135 121 q 163 111 178 96 q 194 80 204 53 l 204 48 q 193 17 178 2 q 162 -13 135 -20 l 131 -20 q 100 -14 85 1 q 70 16 62 48 z"},"/":{"x_min":0,"x_max":342,"ha":342,"o":"m 312 646 l 75 -59 l 15 -59 l 252 646 z"},"[":{"x_min":0,"x_max":409,"ha":409,"o":"m 110 -192 l 110 703 l 373 703 l 373 664 q 337 662 313 658 q 290 655 270 650 q 250 644 240 637 q 229 630 222 617 q 215 605 212 590 q 210 575 210 552 l 210 -41 q 210 -68 214 -85 q 218 -102 227 -115 q 236 -127 256 -135 q 276 -142 302 -146 q 329 -150 373 -154 l 373 -192 z"},"6":{"x_min":0,"x_max":514,"ha":514,"o":"m 171 289 q 170 278 170 242 q 170 192 176 153 q 183 115 192 92 q 202 69 217 54 q 231 40 245 34 q 259 29 275 29 q 304 29 323 69 q 343 109 343 186 q 343 234 315 274 q 287 315 245 315 q 213 315 171 289 z m 450 569 q 332 563 265 509 q 230 480 206 432 q 182 384 176 331 q 231 359 279 365 q 325 364 362 352 q 398 339 419 321 q 440 303 454 281 q 468 258 472 240 q 477 221 477 204 q 477 176 470 148 q 463 119 446 91 q 430 62 406 40 q 382 18 345 4 q 308 -10 263 -10 q 230 -10 201 -4 q 173 2 143 19 q 113 36 92 63 q 71 91 57 138 q 44 185 44 246 q 44 323 71 395 q 98 466 152 513 q 210 563 275 585 q 339 606 444 610 q 449 603 451 590 q 453 578 450 569 z"},"r":{"x_min":0,"x_max":421,"ha":421,"o":"m 225 349 q 249 384 281 412 q 314 439 346 439 q 373 439 397 432 l 401 428 l 381 325 l 363 323 q 339 342 305 342 q 299 342 291 340 q 282 338 269 333 q 256 327 246 318 q 236 309 229 292 q 221 275 221 253 l 221 180 q 221 71 231 0 l 229 -3 q 181 0 147 0 l 80 -3 l 79 0 q 89 68 89 180 l 89 235 q 89 371 78 429 l 80 432 q 170 428 210 435 q 218 435 219 425 q 221 417 221 352 z"},"2":{"x_min":0,"x_max":514,"ha":514,"o":"m 226 556 q 189 556 162 536 q 135 516 110 471 l 66 472 l 45 551 l 48 555 q 68 573 126 592 q 184 610 234 610 q 296 610 345 594 q 394 578 426 541 q 457 505 457 453 q 457 439 454 426 q 452 413 449 403 q 446 393 438 380 l 426 361 q 421 354 409 341 q 397 328 392 323 l 371 303 l 351 283 l 251 186 q 234 170 214 141 q 194 111 194 100 l 276 100 q 311 100 340 101 q 369 102 384 103 q 399 104 423 106 q 448 108 462 109 q 456 83 456 43 q 456 22 462 -4 q 362 0 288 0 q 254 0 216 -1 l 125 -2 q 74 -3 39 -4 l 38 0 q 38 44 65 87 q 92 129 166 205 l 240 278 q 280 318 291 357 q 302 395 302 454 q 302 499 278 527 q 255 556 226 556 z"},"{":{"x_min":0,"x_max":307,"ha":307,"o":"m 208 552 l 216 386 q 219 324 193 294 q 167 265 111 249 l 111 245 q 166 222 192 188 q 219 154 216 95 l 208 -54 q 205 -114 229 -151 q 253 -188 288 -188 q 292 -192 292 -200 q 292 -208 288 -212 q 248 -212 216 -204 q 185 -197 158 -179 q 131 -162 118 -129 q 104 -96 106 -49 l 112 121 q 113 169 90 197 q 67 225 14 231 q 8 237 8 247 q 8 256 14 263 q 66 268 89 298 q 112 328 112 370 l 106 554 q 105 587 115 613 q 125 640 143 657 q 160 674 184 686 q 208 697 234 702 q 260 707 288 707 q 292 703 292 695 q 292 688 288 683 q 273 679 264 675 q 255 671 242 662 q 229 652 223 639 q 216 626 211 604 q 207 582 208 552 z"},"9":{"x_min":0,"x_max":514,"ha":514,"o":"m 351 311 q 352 322 352 358 q 352 408 346 447 q 339 485 330 508 q 320 531 305 546 q 291 560 277 565 q 263 571 247 571 q 218 571 198 531 q 179 491 179 414 q 179 366 207 326 q 235 285 277 285 q 309 285 351 311 z m 72 31 q 190 37 257 91 q 292 120 316 168 q 340 216 346 270 q 291 241 243 235 q 197 236 160 249 q 124 261 103 279 q 82 297 68 319 q 54 342 50 361 q 45 379 45 396 q 45 424 52 452 q 59 481 76 510 q 92 538 116 560 q 140 582 177 596 q 214 610 259 610 q 292 610 321 604 q 349 598 379 581 q 409 564 430 537 q 451 509 465 462 q 478 416 478 354 q 478 277 451 205 q 424 134 370 87 q 312 37 247 15 q 183 -6 78 -10 q 66 6 72 31 z"}," ":{"x_min":0,"x_max":250,"ha":250,"o":""},"I":{"x_min":0,"x_max":351,"ha":351,"o":"m 106 445 q 106 560 94 645 l 96 648 q 144 645 178 645 l 261 648 l 262 645 q 250 562 250 445 l 250 200 q 250 89 262 0 l 260 -3 q 212 0 178 0 l 95 -3 l 94 0 q 106 81 106 200 z"},"H":{"x_min":0,"x_max":788,"ha":788,"o":"m 551 445 q 551 560 539 645 l 541 648 q 589 645 623 645 l 706 648 l 707 645 q 695 562 695 445 l 695 200 q 695 89 707 0 l 705 -3 q 657 0 623 0 l 540 -3 l 539 0 q 551 81 551 200 l 551 311 l 247 311 l 247 200 q 247 85 259 0 l 257 -3 q 209 0 175 0 l 92 -3 l 91 0 q 103 84 103 200 l 103 445 q 103 556 91 645 l 93 648 q 141 645 175 645 l 258 648 l 259 645 q 247 565 247 445 l 247 363 l 551 363 z"},"4":{"x_min":0,"x_max":514,"ha":514,"o":"m 261 498 q 193 406 76 209 l 261 209 z m 261 162 l 84 162 q 58 162 51 169 l 36 187 q 34 192 29 197 l 21 205 q 17 208 17 210 q 17 211 18 214 q 20 216 21 219 q 23 222 24 223 l 282 610 q 324 606 385 610 l 387 608 l 385 209 l 483 209 q 498 209 498 193 q 498 183 489 173 q 479 162 469 162 l 385 162 q 386 77 396 0 l 394 -3 q 354 0 322 0 l 252 -3 l 251 0 q 261 73 261 162 z"},"~":{"x_min":0,"x_max":449,"ha":449,"o":"m 26 204 q 33 238 51 271 q 69 304 97 328 q 125 351 154 351 q 165 351 178 346 q 192 340 201 335 q 210 330 228 319 l 254 303 q 263 297 277 292 q 291 286 301 286 q 326 286 346 298 q 366 310 381 344 l 417 328 q 406 291 389 263 q 372 236 354 223 q 336 209 322 204 q 308 198 297 198 q 268 198 222 231 q 175 263 148 263 q 122 263 99 244 q 76 225 58 191 z"},"D":{"x_min":0,"x_max":771,"ha":771,"o":"m 245 101 q 245 83 252 73 q 260 63 285 57 q 311 51 358 51 q 396 51 422 54 q 449 57 473 66 q 498 75 514 92 q 529 108 541 134 q 553 160 558 197 q 563 234 563 284 q 563 313 562 335 q 562 357 559 385 q 556 413 551 433 q 546 454 538 477 q 530 500 518 516 q 506 533 489 549 q 471 564 449 574 q 427 583 398 589 q 368 595 333 595 q 294 595 270 583 q 245 570 245 545 z m 175 645 q 213 645 273 646 q 333 648 371 648 q 442 648 508 621 q 573 594 622 548 q 670 502 699 439 q 728 376 728 308 q 728 257 717 213 q 705 170 686 139 q 666 107 639 83 q 612 58 582 42 q 552 27 518 17 q 484 6 452 2 q 421 -2 389 -2 q 335 -2 274 -1 q 214 0 175 0 l 90 -3 l 89 0 q 101 84 101 200 l 101 445 q 101 556 89 645 l 91 648 q 141 645 175 645 z"},"^":{"x_min":0,"x_max":518,"ha":518,"o":"m 259 569 l 178 346 l 102 346 l 229 650 l 291 650 l 417 346 l 340 346 z"},"0":{"x_min":0,"x_max":514,"ha":514,"o":"m 260 565 q 246 565 235 560 q 224 554 212 537 q 200 520 192 490 q 184 461 178 409 q 173 357 173 287 l 173 259 q 173 250 173 228 q 174 207 175 194 q 176 182 178 161 q 180 141 183 128 l 190 99 q 195 82 201 72 q 207 62 215 52 q 223 42 233 38 q 244 33 256 33 q 269 33 281 41 q 292 48 303 68 q 315 88 323 120 q 332 151 337 205 q 342 258 342 327 q 342 391 334 438 q 327 486 315 513 q 303 540 289 552 q 275 565 260 565 z m 255 -10 q 202 -10 158 15 q 115 40 87 83 q 60 125 45 180 q 30 236 30 298 q 30 443 95 527 q 160 610 260 610 q 292 610 322 601 q 352 593 382 571 q 412 549 434 516 q 456 482 470 429 q 484 375 484 307 q 484 239 469 183 q 455 128 432 93 q 409 57 378 33 q 348 10 317 0 q 286 -10 255 -10 z"},"F":{"x_min":0,"x_max":539,"ha":539,"o":"m 463 645 q 502 645 526 648 l 528 645 q 526 617 526 610 q 526 584 528 569 l 526 565 q 383 577 250 577 q 242 550 242 445 l 242 372 q 351 372 469 382 l 472 379 q 469 366 469 342 q 469 317 472 304 l 469 301 q 366 311 242 311 l 242 200 q 242 71 252 0 l 250 -3 q 206 0 172 0 l 87 -3 l 86 0 q 98 84 98 200 l 98 445 q 98 556 86 645 l 88 648 q 138 645 172 645 z"},"`":{"x_min":0,"x_max":392,"ha":392,"o":"m 198 702 l 267 578 q 276 562 276 552 q 276 545 268 541 q 259 536 252 536 q 237 536 214 556 l 93 661 l 95 672 q 103 681 129 692 q 154 704 178 704 q 190 704 198 702 z"},"k":{"x_min":0,"x_max":591,"ha":591,"o":"m 81 200 l 81 474 q 81 596 69 662 l 71 665 q 99 667 146 678 q 192 690 214 698 q 225 698 225 688 q 213 592 213 500 l 213 241 q 241 244 257 256 q 287 279 333 331 q 380 383 412 429 q 542 429 561 432 l 563 429 q 534 405 499 368 l 424 289 q 385 247 376 238 q 492 98 584 0 l 582 -3 q 569 0 478 0 q 421 0 398 -3 l 354 59 l 317 111 q 306 126 286 150 q 267 174 243 198 q 234 206 213 207 l 213 200 q 213 84 225 0 l 223 -3 q 181 0 147 0 l 70 -3 l 69 0 q 81 79 81 200 z"},"u":{"x_min":0,"x_max":591,"ha":591,"o":"m 372 64 q 346 36 313 19 q 279 1 254 -4 q 228 -10 204 -10 q 168 -10 142 1 q 115 13 100 32 q 84 52 77 76 q 70 99 71 126 l 73 249 q 74 336 65 429 l 67 432 q 103 429 137 429 l 212 432 l 213 429 q 208 376 205 249 l 203 159 q 203 130 207 110 q 211 91 220 82 q 229 73 238 70 q 247 67 260 67 q 283 67 309 80 q 334 93 353 117 q 372 142 372 169 l 372 249 q 372 373 365 429 l 367 432 q 401 429 435 429 l 512 432 l 513 429 q 504 373 504 249 l 504 192 q 504 94 521 0 l 519 -3 q 499 0 445 0 q 415 0 388 -3 q 379 -3 379 0 l 374 64 z"},"]":{"x_min":0,"x_max":409,"ha":409,"o":"m 299 703 l 299 -192 l 36 -192 l 36 -153 q 80 -150 106 -146 q 132 -142 152 -135 q 172 -127 182 -115 q 191 -102 195 -85 q 199 -68 199 -41 l 199 552 q 199 575 197 590 q 195 604 188 617 q 180 629 170 637 q 159 644 140 650 q 120 656 96 659 q 73 662 36 665 l 36 703 z"},"U":{"x_min":0,"x_max":719,"ha":719,"o":"m 547 445 q 547 574 537 645 l 539 648 q 565 645 590 645 l 641 648 l 642 645 q 632 575 632 445 l 632 295 q 632 148 566 69 q 501 -10 358 -10 q 333 -10 310 -7 q 286 -4 259 3 q 231 11 207 22 q 183 34 160 53 q 138 73 122 98 q 105 123 96 158 q 86 193 86 236 l 86 445 q 86 574 76 645 l 78 648 q 122 645 156 645 l 239 648 l 240 645 q 230 575 230 445 l 230 269 q 230 250 231 233 q 232 216 236 194 q 240 172 247 153 q 253 134 264 116 q 276 97 291 84 q 306 71 329 63 q 352 55 379 55 q 421 55 452 68 q 483 81 501 101 q 519 121 529 151 q 540 181 543 210 q 547 240 547 277 z"},"o":{"x_min":0,"x_max":566,"ha":566,"o":"m 41 205 q 41 318 108 378 q 174 439 285 439 q 347 439 394 422 q 440 404 469 373 q 497 342 511 302 q 525 262 525 214 q 525 110 461 50 q 397 -10 283 -10 q 171 -10 106 48 q 41 105 41 205 z m 278 389 q 253 389 235 380 q 217 372 207 358 q 197 344 192 322 q 186 299 185 279 q 183 258 183 228 q 183 206 184 187 q 186 168 189 145 q 193 122 201 105 q 209 87 221 72 q 233 57 252 48 q 272 40 297 40 q 383 40 383 187 q 383 296 361 343 q 339 389 278 389 z"},"N":{"x_min":0,"x_max":780,"ha":780,"o":"m 101 445 q 103 554 91 645 l 93 648 q 124 645 158 645 l 202 647 l 565 203 q 571 196 574 192 q 578 189 581 188 q 584 187 586 192 q 587 197 587 208 l 580 445 q 576 581 567 645 l 569 648 q 596 645 620 645 l 669 648 l 671 645 q 661 579 661 445 l 661 -3 q 628 0 613 0 q 602 0 587 -1 q 572 -2 557 -2 l 176 455 q 173 458 172 463 q 172 450 172 439 l 166 200 q 163 66 172 0 l 170 -3 q 146 0 121 0 l 81 -3 l 80 0 q 90 71 96 200 z"},"+":{"x_min":0,"x_max":520,"ha":520,"o":"m 290 262 l 460 262 l 460 202 l 290 202 l 290 32 l 230 32 l 230 202 l 60 202 l 60 262 l 230 262 l 230 433 l 290 433 z"},"G":{"x_min":0,"x_max":760,"ha":760,"o":"m 546 117 q 546 236 536 307 l 538 310 q 586 307 620 307 l 693 310 l 694 307 q 684 241 684 137 q 684 95 694 83 l 694 80 q 644 38 564 14 q 485 -10 397 -10 q 263 -10 178 48 q 114 92 76 161 q 39 230 39 307 q 39 392 69 461 q 99 530 155 575 q 259 658 412 658 q 446 658 483 654 q 521 649 549 642 q 578 636 602 629 q 625 622 638 617 l 651 613 l 653 610 q 637 543 633 480 l 603 479 q 583 519 549 547 q 515 575 477 589 q 438 602 398 602 q 300 602 248 527 q 197 452 197 327 q 197 277 213 227 q 229 177 257 136 q 285 96 328 70 q 371 45 420 45 q 464 45 493 53 q 522 61 546 83 z"},"q":{"x_min":0,"x_max":595,"ha":595,"o":"m 383 367 q 362 380 341 385 q 320 389 286 389 q 196 389 196 222 q 196 170 204 135 q 213 99 229 81 q 245 63 263 56 q 281 49 305 49 q 330 49 383 90 z m 404 433 q 459 429 524 432 l 526 429 q 515 371 515 235 l 515 -32 q 515 -165 525 -232 l 523 -235 q 484 -232 450 -232 l 374 -235 l 373 -232 q 383 -169 383 -32 l 383 38 q 326 -10 262 -10 q 209 -10 174 1 q 140 12 113 41 q 86 70 70 113 q 54 156 54 207 q 54 308 118 373 q 183 439 287 439 q 320 439 404 433 z"},"d":{"x_min":0,"x_max":578,"ha":578,"o":"m 373 133 l 373 303 q 365 342 339 365 q 313 389 278 389 q 186 389 186 221 q 186 48 276 48 q 308 48 332 67 q 355 87 373 133 z m 373 54 q 336 -10 230 -10 q 147 -10 96 50 q 44 110 44 203 q 44 261 65 311 q 86 360 130 393 q 165 418 198 428 q 230 439 279 439 q 302 439 331 426 q 359 413 373 394 l 373 474 q 373 596 361 662 l 363 665 q 391 667 438 678 q 484 690 506 698 q 517 698 517 688 q 505 592 505 500 l 505 192 q 505 104 524 0 l 522 -3 q 502 0 453 0 q 416 0 389 -3 q 380 -3 380 0 l 375 54 z"},"1":{"x_min":0,"x_max":514,"ha":514,"o":"m 367 189 q 367 80 379 0 l 377 -3 q 334 0 298 0 l 221 -3 l 220 0 q 231 69 231 189 l 231 433 q 231 466 228 482 q 225 498 213 498 q 148 498 104 492 l 102 535 q 229 564 371 610 q 378 610 378 605 q 367 527 367 442 z"},"5":{"x_min":0,"x_max":514,"ha":514,"o":"m 242 -10 q 168 -10 124 0 q 80 10 50 35 l 47 40 l 68 119 l 102 120 q 127 75 154 57 q 181 39 224 39 q 263 39 293 75 q 324 110 324 178 q 324 227 314 259 q 304 291 280 308 q 252 327 218 327 q 183 327 161 318 q 140 309 112 286 l 88 293 q 100 321 106 447 q 112 574 103 606 l 105 609 q 222 599 247 599 q 339 599 444 610 l 450 607 l 435 511 q 368 505 298 505 q 235 505 162 513 l 155 366 q 193 380 274 380 q 309 380 343 368 q 377 357 402 337 q 431 315 448 280 q 466 245 466 206 q 466 143 435 93 q 404 43 353 17 q 302 -10 242 -10 z"}}}
